<svg xmlns="http://www.w3.org/2000/svg" viewBox="0 0 1200 260" fill="none">
  <!-- Background -->
  <rect width="1200" height="260" fill="#F0F9FF"/>

  <!-- Decorative circles -->
  <circle cx="1050" cy="50" r="120" fill="#BFDBFE" opacity="0.4"/>
  <circle cx="1020" cy="210" r="80" fill="#7DD3FC" opacity="0.3"/>
  <circle cx="160" cy="180" r="60" fill="#BFDBFE" opacity="0.3"/>

  <!-- Grid lines -->
  <g opacity="0.06" stroke="#2563EB" stroke-width="1">
    <line x1="0" y1="52" x2="1200" y2="52"/>
    <line x1="0" y1="104" x2="1200" y2="104"/>
    <line x1="0" y1="156" x2="1200" y2="156"/>
    <line x1="0" y1="208" x2="1200" y2="208"/>
  </g>

  <!-- Envelope icon -->
  <g transform="translate(100, 70)">
    <rect x="0" y="18" width="78" height="50" rx="5" stroke="#2563EB" stroke-width="2.5" fill="none"/>
    <path d="M0 18 L39 45 L78 18" stroke="#06B6D4" stroke-width="2.5" fill="none" stroke-linejoin="round"/>
    <circle cx="39" cy="40" r="8" fill="#06B6D4" opacity="0.12"/>
    <path d="M36 41 L38 44 L42 36" stroke="#06B6D4" stroke-width="1.5" fill="none" stroke-linecap="round"/>
  </g>

  <!-- Small calendar icon -->
  <g transform="translate(210, 130)" opacity="0.35">
    <rect x="0" y="3" width="24" height="22" rx="3" stroke="#0891B2" stroke-width="1.5" fill="none"/>
    <line x1="0" y1="10" x2="24" y2="10" stroke="#0891B2" stroke-width="1.5"/>
    <line x1="6" y1="0" x2="6" y2="7" stroke="#0891B2" stroke-width="1.5"/>
    <line x1="18" y1="0" x2="18" y2="7" stroke="#0891B2" stroke-width="1.5"/>
    <text x="12" y="21" text-anchor="middle" font-family="system-ui" font-size="9" fill="#0891B2" font-weight="600">15</text>
  </g>

  <!-- Small contact icon -->
  <g transform="translate(255, 130)" opacity="0.35">
    <rect x="0" y="0" width="24" height="25" rx="3.5" stroke="#1D4ED8" stroke-width="1.5" fill="none"/>
    <circle cx="12" cy="8" r="3.5" stroke="#1D4ED8" stroke-width="1.5" fill="none"/>
    <path d="M4 22 Q4 18 12 18 Q20 18 20 22" stroke="#1D4ED8" stroke-width="1.5" fill="none"/>
  </g>

  <!-- Project title -->
  <text x="80" y="80" font-family="system-ui, -apple-system, sans-serif" font-size="42" font-weight="800" fill="#1D4ED8" letter-spacing="-1">fastmail-py-sdk</text>

  <!-- Tagline -->
  <text x="82" y="118" font-family="system-ui, -apple-system, sans-serif" font-size="17" fill="#64748B" letter-spacing="0.5">Python SDK for Fastmail — email, calendars, and contacts</text>

  <!-- Feature pills -->
  <g transform="translate(80, 150)">
    <rect x="0" y="0" width="56" height="22" rx="11" fill="#DBEAFE"/>
    <text x="28" y="15" text-anchor="middle" font-family="system-ui, monospace" font-size="11" fill="#2563EB">JMAP</text>

    <rect x="64" y="0" width="60" height="22" rx="11" fill="#CFFAFE"/>
    <text x="94" y="15" text-anchor="middle" font-family="system-ui, monospace" font-size="11" fill="#0891B2">CalDAV</text>

    <rect x="132" y="0" width="68" height="22" rx="11" fill="#CFFAFE"/>
    <text x="166" y="15" text-anchor="middle" font-family="system-ui, monospace" font-size="11" fill="#0891B2">CardDAV</text>

    <rect x="208" y="0" width="60" height="22" rx="11" fill="#DBEAFE"/>
    <text x="238" y="15" text-anchor="middle" font-family="system-ui, monospace" font-size="11" fill="#3B82F6">Pydantic</text>

    <rect x="276" y="0" width="46" height="22" rx="11" fill="#DBEAFE"/>
    <text x="299" y="15" text-anchor="middle" font-family="system-ui, monospace" font-size="11" fill="#3B82F6">Async</text>
  </g>

  <!-- Bottom bar -->
  <rect x="80" y="200" width="1040" height="1" fill="#CBD5E1"/>
  <text x="80" y="228" font-family="system-ui, -apple-system, sans-serif" font-size="12" fill="#94A3B8">A Python port of the Rust fastmail-cli · MIT Licensed</text>
</svg>